<svg aria-hidden="true" style="position: absolute; width: 0; height: 0; overflow: hidden;" version="1.1" xmlns="http://www.w3.org/2000/svg" xmlns:xlink="http://www.w3.org/1999/xlink">
<defs>
<symbol id="icon-cart" viewBox="0 0 32 32">
<path fill="none" stroke="#fff" style="stroke: var(--color6, #fff)" stroke-linejoin="round" stroke-linecap="round" stroke-miterlimit="4" stroke-width="2.8038" d="M7.676 5.778h21.467l-2.921 10.222h-16.974M27.683 21.841h-17.524l-2.921-18.984h-4.381M11.619 27.683c0 0.806-0.654 1.46-1.46 1.46s-1.46-0.654-1.46-1.46c0-0.807 0.654-1.46 1.46-1.46s1.46 0.654 1.46 1.46zM27.683 27.683c0 0.806-0.654 1.46-1.46 1.46s-1.46-0.654-1.46-1.46c0-0.807 0.654-1.46 1.46-1.46s1.46 0.654 1.46 1.46z"></path>
</symbol>
<symbol id="icon-footer1" viewBox="0 0 18 32">
<path d="M12 12h6v6h-6v14h-6v-14h-6v-6h6v-2.51c0-2.378 0.748-5.382 2.236-7.024 1.488-1.646 3.346-2.466 5.572-2.466h4.192v6h-4.2c-0.996 0-1.8 0.804-1.8 1.798v4.202z"></path>
</symbol>
<symbol id="icon-footer2" viewBox="0 0 36 32">
<path d="M31.78 6.024c1.616-0.992 2.686-2.346 3.21-4.068-1.476 0.798-3.060 1.378-4.702 1.722-1.406-1.512-3.186-2.28-5.32-2.28-2.086 0-3.848 0.732-5.286 2.156-0.694 0.676-1.244 1.487-1.614 2.383s-0.553 1.858-0.538 2.827c0 0.618 0.078 1.17 0.234 1.638-6.152-0.21-11.244-2.762-15.256-7.674-0.68 1.202-1.020 2.426-1.020 3.692 0 2.602 1.098 4.664 3.29 6.178-1.25-0.106-2.352-0.422-3.29-0.94 0 1.858 0.546 3.41 1.64 4.776 1.063 1.331 2.56 2.245 4.23 2.582-0.624 0.16-1.282 0.236-1.958 0.236-0.624 0-1.066-0.052-1.328-0.166 0.46 1.514 1.328 2.742 2.582 3.682 1.24 0.941 2.748 1.462 4.304 1.486-2.664 2.090-5.71 3.124-9.156 3.124-0.844 0-1.442-0.012-1.804-0.076 3.394 2.204 7.172 3.298 11.352 3.298 4.278 0 8.058-1.084 11.348-3.252 3.29-2.156 5.718-4.816 7.278-7.948 1.543-3.031 2.346-6.383 2.344-9.784v-0.936c1.438-1.060 2.683-2.36 3.68-3.842-1.347 0.584-2.766 0.983-4.22 1.186z"></path>
</symbol>
<symbol id="icon-footer3" viewBox="0 0 32 32">
<path d="M26.667 0h-21.333c-3.022 0-5.333 2.311-5.333 5.333v21.333c0 3.022 2.311 5.333 5.333 5.333h21.333c3.022 0 5.333-2.311 5.333-5.333v-21.333c0-3.022-2.311-5.333-5.333-5.333zM16 10.667c3.022 0 5.333 2.311 5.333 5.333s-2.311 5.333-5.333 5.333c-3.022 0-5.333-2.311-5.333-5.333s2.311-5.333 5.333-5.333zM22.756 7.111c0-1.244 1.067-2.133 2.133-2.133s2.133 1.067 2.133 2.133c0 1.067-0.889 2.133-2.133 2.133s-2.133-0.889-2.133-2.133zM26.667 28.444h-21.333c-1.067 0-1.778-0.711-1.778-1.778v-10.667h3.556c0 4.978 3.911 8.889 8.889 8.889s8.889-3.911 8.889-8.889h3.556v10.667c0 1.067-0.711 1.778-1.778 1.778z"></path>
</symbol>
<symbol id="icon-footer4" viewBox="0 0 41 32">
<path d="M40.873 7.385c0-3.616-2.66-6.525-5.947-6.525-4.452-0.208-8.992-0.288-13.632-0.288h-1.446c-4.629 0-9.177 0.080-13.629 0.289-3.279 0-5.938 2.925-5.938 6.541-0.201 2.86-0.286 5.721-0.281 8.581-0.008 2.861 0.083 5.724 0.273 8.59 0 3.616 2.66 6.549 5.938 6.549 4.677 0.217 9.474 0.313 14.352 0.305 4.886 0.016 9.67-0.086 14.352-0.305 3.287 0 5.947-2.933 5.947-6.549 0.193-2.869 0.281-5.729 0.273-8.598 0.018-2.861-0.069-5.724-0.262-8.59zM16.634 23.866v-15.79l11.652 7.891-11.652 7.899z"></path>
</symbol>
<symbol id="icon-footer5" viewBox="0 0 32 32">
<path fill="#bdb9b9" style="fill: var(--color30, #bdb9b9)" d="M16 0.4c-8.602 0-15.6 6.998-15.6 15.6s6.998 15.6 15.6 15.6c8.602 0 15.6-6.998 15.6-15.6s-6.998-15.6-15.6-15.6zM16 2.8c7.303 0 13.2 5.897 13.2 13.2s-5.897 13.2-13.2 13.2c-7.303 0-13.2-5.897-13.2-13.2s5.897-13.2 13.2-13.2zM15.887 8.8c-3.989 0-7.2 3.211-7.2 7.2s3.211 7.2 7.2 7.2c2.879 0 5.34-1.726 6.487-4.163l-2.174-1.012c-0.774 1.644-2.39 2.774-4.313 2.774-2.732 0-4.8-2.068-4.8-4.8s2.068-4.8 4.8-4.8c1.922 0 3.54 1.129 4.313 2.776l2.176-1.013c-1.15-2.437-3.61-4.163-6.49-4.163h0.001z"></path>
</symbol>
<symbol id="icon-Icon1" viewBox="0 0 32 32">
<path fill="none" stroke="#5027b5" style="stroke: var(--color31, #5027b5)" stroke-linejoin="round" stroke-linecap="round" stroke-miterlimit="4" stroke-width="2.6667" d="M20.889 11.111h0.016M20.889 20.889c5.4 0 9.778-4.378 9.778-9.778s-4.378-9.778-9.778-9.778c-5.4 0-9.778 4.378-9.778 9.778 0 0.446 0.030 0.885 0.088 1.315 0.095 0.707 0.143 1.061 0.111 1.285-0.033 0.233-0.076 0.359-0.191 0.564-0.11 0.197-0.305 0.392-0.694 0.781l-8.328 8.328c-0.282 0.282-0.423 0.423-0.524 0.587-0.089 0.146-0.155 0.305-0.195 0.471-0.045 0.188-0.045 0.387-0.045 0.785v2.831c0 0.913 0 1.369 0.178 1.718 0.156 0.307 0.406 0.556 0.712 0.712 0.349 0.178 0.805 0.178 1.718 0.178h2.831c0.399 0 0.598 0 0.785-0.045 0.166-0.040 0.325-0.106 0.471-0.195 0.164-0.101 0.305-0.242 0.587-0.524l8.328-8.328c0.389-0.389 0.583-0.583 0.781-0.694 0.206-0.115 0.331-0.157 0.564-0.191 0.224-0.032 0.578 0.015 1.285 0.111 0.43 0.058 0.869 0.088 1.315 0.088z"></path>
</symbol>
<symbol id="icon-Icon2" viewBox="0 0 32 32">
<path fill="none" stroke="#5027b5" style="stroke: var(--color31, #5027b5)" stroke-linejoin="round" stroke-linecap="round" stroke-miterlimit="4" stroke-width="2.6667" d="M6.222 30.667c0 0 2.933-1.63 9.778-1.63s9.778 1.63 9.778 1.63M11.111 24.148v4.889M20.889 24.148v4.889M9.156 24.148h13.689c2.738 0 4.107 0 5.153-0.533 0.92-0.469 1.668-1.217 2.137-2.137 0.533-1.046 0.533-2.415 0.533-5.153v-7.17c0-2.738 0-4.107-0.533-5.153-0.469-0.92-1.217-1.668-2.137-2.137-1.046-0.533-2.415-0.533-5.153-0.533h-13.689c-2.738 0-4.107 0-5.153 0.533-0.92 0.469-1.668 1.217-2.137 2.137-0.533 1.046-0.533 2.415-0.533 5.153v7.17c0 2.738 0 4.107 0.533 5.153 0.469 0.92 1.217 1.668 2.137 2.137 1.046 0.533 2.415 0.533 5.153 0.533z"></path>
</symbol>
<symbol id="icon-icon3" viewBox="0 0 33 32">
<path fill="none" stroke="#5027b5" style="stroke: var(--color31, #5027b5)" stroke-linejoin="round" stroke-linecap="round" stroke-miterlimit="4" stroke-width="2.7429" d="M21.486 23.771c2.777 0 5.029-2.251 5.029-5.029s-2.251-5.029-5.029-5.029c-2.777 0-5.029 2.251-5.029 5.029s2.251 5.029 5.029 5.029z"></path>
<path fill="none" stroke="#5027b5" style="stroke: var(--color31, #5027b5)" stroke-linejoin="round" stroke-linecap="round" stroke-miterlimit="4" stroke-width="2.7429" d="M18.133 22.933v7.543l3.352-2.514 3.352 2.514v-7.543"></path>
<path fill="none" stroke="#5027b5" style="stroke: var(--color31, #5027b5)" stroke-linejoin="round" stroke-linecap="round" stroke-miterlimit="4" stroke-width="2.7429" d="M13.105 25.448h-8.381c-0.889 0-1.742-0.353-2.37-0.982s-0.982-1.481-0.982-2.371v-16.762c0-1.844 1.509-3.352 3.352-3.352h23.467c0.889 0 1.742 0.353 2.371 0.982s0.982 1.481 0.982 2.37v16.762c-0.001 0.588-0.156 1.165-0.45 1.674s-0.717 0.932-1.226 1.226M6.4 8.686h20.114M6.4 13.714h5.029M6.4 18.743h3.352"></path>
</symbol>
<symbol id="icon-Icon4" viewBox="0 0 27 32">
<path fill="none" stroke="#5027b5" style="stroke: var(--color31, #5027b5)" stroke-linejoin="round" stroke-linecap="round" stroke-miterlimit="4" stroke-width="2.6667" d="M19.852 7.852c0 3.6-2.919 6.519-6.519 6.519s-6.519-2.918-6.519-6.519c0-3.6 2.918-6.519 6.519-6.519s6.519 2.918 6.519 6.519z"></path>
<path fill="none" stroke="#5027b5" style="stroke: var(--color31, #5027b5)" stroke-linejoin="round" stroke-linecap="round" stroke-miterlimit="4" stroke-width="2.6667" d="M13.333 19.259c-6.3 0-11.407 5.107-11.407 11.407h22.815c0-6.3-5.107-11.407-11.407-11.407z"></path>
</symbol>
<symbol id="icon-Icon5" viewBox="0 0 32 32">
<path fill="none" stroke="#5027b5" style="stroke: var(--color31, #5027b5)" stroke-linejoin="round" stroke-linecap="round" stroke-miterlimit="4" stroke-width="2.6667" d="M9.482 16.543l4.011 4.346 9.026-9.778M9.156 4.001c1.179-0.094 2.298-0.558 3.198-1.325 2.101-1.79 5.19-1.79 7.291 0 0.9 0.767 2.019 1.231 3.198 1.325 2.751 0.22 4.936 2.404 5.155 5.155 0.094 1.179 0.558 2.298 1.325 3.198 1.79 2.101 1.79 5.19 0 7.291-0.767 0.9-1.231 2.019-1.325 3.198-0.22 2.751-2.404 4.936-5.155 5.155-1.179 0.094-2.298 0.558-3.198 1.325-2.101 1.79-5.19 1.79-7.291 0-0.9-0.767-2.019-1.231-3.198-1.325-2.751-0.22-4.936-2.404-5.155-5.155-0.094-1.179-0.558-2.298-1.325-3.198-1.79-2.101-1.79-5.19 0-7.291 0.767-0.9 1.231-2.019 1.325-3.198 0.22-2.751 2.404-4.936 5.155-5.155z"></path>
</symbol>
<symbol id="icon-Icon6" viewBox="0 0 32 32">
<path fill="none" stroke="#5027b5" style="stroke: var(--color31, #5027b5)" stroke-linejoin="round" stroke-linecap="round" stroke-miterlimit="4" stroke-width="2.6667" d="M16 11.724c-1.316 0.041-3.257 0.588-3.259 2.137-0.003 1.65 1.63 2.139 3.259 2.139s3.259 0.377 3.259 2.139c0 1.324-1.619 1.905-3.259 2.097M16 11.724c1.116-0.007 2.444 0 3.259 0.202M16 11.724v-2.242M16 20.236c-1.304 0-1.63 0.042-3.259-0.162M16 20.236v2.282M9.156 4.001c1.179-0.094 2.298-0.558 3.198-1.325 2.101-1.79 5.19-1.79 7.291 0 0.9 0.767 2.019 1.231 3.198 1.325 2.751 0.22 4.936 2.404 5.155 5.155 0.094 1.179 0.558 2.298 1.325 3.198 1.79 2.101 1.79 5.19 0 7.291-0.767 0.9-1.231 2.019-1.325 3.198-0.22 2.751-2.404 4.936-5.155 5.155-1.179 0.094-2.298 0.558-3.198 1.325-2.101 1.79-5.19 1.79-7.291 0-0.9-0.767-2.019-1.231-3.198-1.325-2.751-0.22-4.936-2.404-5.155-5.155-0.094-1.179-0.558-2.298-1.325-3.198-1.79-2.101-1.79-5.19 0-7.291 0.767-0.9 1.231-2.019 1.325-3.198 0.22-2.751 2.404-4.936 5.155-5.155z"></path>
</symbol>
<symbol id="icon-Icon7" viewBox="0 0 32 32">
<path fill="none" stroke="#5228b6" style="stroke: var(--color4, #5228b6)" stroke-linejoin="round" stroke-linecap="round" stroke-miterlimit="4" stroke-width="4" d="M19.333 5.334c0-0.933 0-1.4 0.182-1.757 0.16-0.314 0.415-0.569 0.728-0.728 0.356-0.182 0.823-0.182 1.757-0.182h4.667c0.933 0 1.4 0 1.757 0.182 0.314 0.16 0.569 0.415 0.728 0.728 0.182 0.357 0.182 0.823 0.182 1.757v4.667c0 0.933 0 1.4-0.182 1.757-0.16 0.314-0.415 0.569-0.728 0.728-0.356 0.182-0.823 0.182-1.757 0.182h-4.667c-0.933 0-1.4 0-1.757-0.182-0.314-0.16-0.569-0.415-0.728-0.728-0.182-0.357-0.182-0.823-0.182-1.757v-4.667z"></path>
<path fill="none" stroke="#5228b6" style="stroke: var(--color4, #5228b6)" stroke-linejoin="round" stroke-linecap="round" stroke-miterlimit="4" stroke-width="4" d="M2.667 5.334c0-0.933 0-1.4 0.182-1.757 0.16-0.314 0.415-0.569 0.728-0.728 0.357-0.182 0.823-0.182 1.757-0.182h4.667c0.933 0 1.4 0 1.757 0.182 0.314 0.16 0.569 0.415 0.728 0.728 0.182 0.357 0.182 0.823 0.182 1.757v4.667c0 0.933 0 1.4-0.182 1.757-0.16 0.314-0.415 0.569-0.728 0.728-0.357 0.182-0.823 0.182-1.757 0.182h-4.667c-0.933 0-1.4 0-1.757-0.182-0.314-0.16-0.569-0.415-0.728-0.728-0.182-0.357-0.182-0.823-0.182-1.757v-4.667z"></path>
<path fill="none" stroke="#5228b6" style="stroke: var(--color4, #5228b6)" stroke-linejoin="round" stroke-linecap="round" stroke-miterlimit="4" stroke-width="4" d="M2.667 22c0-0.933 0-1.4 0.182-1.757 0.16-0.314 0.415-0.569 0.728-0.728 0.357-0.182 0.823-0.182 1.757-0.182h4.667c0.933 0 1.4 0 1.757 0.182 0.314 0.16 0.569 0.415 0.728 0.728 0.182 0.357 0.182 0.823 0.182 1.757v4.667c0 0.933 0 1.4-0.182 1.757-0.16 0.314-0.415 0.569-0.728 0.728-0.357 0.182-0.823 0.182-1.757 0.182h-4.667c-0.933 0-1.4 0-1.757-0.182-0.314-0.16-0.569-0.415-0.728-0.728-0.182-0.356-0.182-0.823-0.182-1.757v-4.667z"></path>
<path fill="none" stroke="#5228b6" style="stroke: var(--color4, #5228b6)" stroke-linejoin="round" stroke-linecap="round" stroke-miterlimit="4" stroke-width="4" d="M19.333 22c0-0.933 0-1.4 0.182-1.757 0.16-0.314 0.415-0.569 0.728-0.728 0.356-0.182 0.823-0.182 1.757-0.182h4.667c0.933 0 1.4 0 1.757 0.182 0.314 0.16 0.569 0.415 0.728 0.728 0.182 0.357 0.182 0.823 0.182 1.757v4.667c0 0.933 0 1.4-0.182 1.757-0.16 0.314-0.415 0.569-0.728 0.728-0.356 0.182-0.823 0.182-1.757 0.182h-4.667c-0.933 0-1.4 0-1.757-0.182-0.314-0.16-0.569-0.415-0.728-0.728-0.182-0.356-0.182-0.823-0.182-1.757v-4.667z"></path>
</symbol>
<symbol id="icon-Icon8" viewBox="0 0 32 32">
<path fill="none" stroke="#888" style="stroke: var(--color32, #888)" stroke-linejoin="round" stroke-linecap="round" stroke-miterlimit="4" stroke-width="2.6667" d="M2.667 11.556h26.667M8.593 2.667v2.963M23.407 2.667v2.963M7.111 17.481h2.963M7.111 23.407h2.963M14.519 17.481h2.963M14.519 23.407h2.963M21.926 17.481h2.963M21.926 23.407h2.963M7.407 29.333h17.185c1.66 0 2.489 0 3.123-0.323 0.558-0.284 1.011-0.737 1.295-1.295 0.323-0.634 0.323-1.463 0.323-3.123v-14.222c0-1.659 0-2.489-0.323-3.123-0.284-0.558-0.737-1.011-1.295-1.295-0.634-0.323-1.463-0.323-3.123-0.323h-17.185c-1.659 0-2.489 0-3.123 0.323-0.558 0.284-1.011 0.737-1.295 1.295-0.323 0.634-0.323 1.464-0.323 3.123v14.222c0 1.66 0 2.489 0.323 3.123 0.284 0.558 0.737 1.011 1.295 1.295 0.634 0.323 1.464 0.323 3.123 0.323z"></path>
</symbol>
<symbol id="icon-Icon9" viewBox="0 0 37 32">
<path fill="none" stroke-linejoin="round" stroke-linecap="round" stroke-miterlimit="4" stroke-width="5.3333" d="M3.111 16h31.111M34.222 16l-13.333-13.333M34.222 16l-13.333 13.333"></path>
</symbol>
<symbol id="icon-logo" viewBox="0 0 275 32">
<path d="M68.962 8.996h8.564v22.098h9.523v-22.098h8.564v-8.091h-26.715v8.091h0.064z"></path>
<path d="M113.956 12.438l-3.643-0.906c-1.981-0.483-2.94-1.147-2.94-1.992 0-1.208 1.47-1.872 4.154-1.872 3.323 0 6.839 1.208 9.906 3.381v-8.574c-3.515-1.691-7.094-2.475-10.865-2.475-7.861 0-12.782 3.743-12.782 9.721 0 4.589 2.748 7.547 8.373 8.996l4.602 1.147c1.854 0.423 2.748 1.147 2.748 2.174 0 1.509-1.598 2.294-4.538 2.294-3.835 0-7.797-1.389-10.993-3.864v8.574c3.707 1.992 7.669 2.959 11.952 2.959 8.053 0 13.102-3.925 13.102-10.204 0.064-4.709-3.004-7.849-9.076-9.358z"></path>
<path d="M56.562 19.14c0 2.536-2.109 4.528-4.793 4.528s-4.793-1.992-4.793-4.528v-18.234h-9.523v17.57c0 7.909 5.944 13.525 14.316 13.525s14.316-5.615 14.316-13.525v-17.57h-9.523v18.234z"></path>
<path d="M17.192 0c-9.651 0-17.192 7.004-17.192 16s7.542 16 17.192 16c9.651 0 17.192-7.004 17.192-16s-7.542-16-17.192-16zM17.192 23.668c-4.154 0-7.414-3.381-7.414-7.668s3.26-7.668 7.414-7.668c4.154 0 7.414 3.381 7.414 7.668s-3.259 7.668-7.414 7.668z"></path>
<path d="M261.912 23.004v-22.098h-9.523v30.189h22.434v-8.091h-12.911z"></path>
<path d="M232.13 0c-3.962 0-6.775 0.906-10.225 3.26-2.11 1.268-3.132 1.691-4.028 1.691-1.086 0-2.108-0.423-4.026-1.691-3.45-2.355-6.327-3.26-10.225-3.26-9.651 0-17.193 7.004-17.193 16s7.414 16 17.065 16c3.898 0 6.711-0.906 10.225-3.26 1.918-1.328 2.94-1.691 4.028-1.691 1.214 0 2.172 0.423 4.026 1.691 3.45 2.355 6.327 3.26 10.225 3.26 9.651 0 17.193-7.004 17.193-16s-7.479-16-17.065-16zM232.066 23.426c-2.236 0-5.56-1.268-8.053-3.019-2.364-1.691-4.218-2.415-6.199-2.415-1.982 0-3.836 0.725-6.2 2.415-2.492 1.751-5.816 2.959-8.053 2.959-4.154 0-7.415-3.26-7.415-7.426s3.324-7.426 7.415-7.426c2.236 0 5.56 1.208 8.053 2.959 2.428 1.691 4.346 2.415 6.2 2.415 1.98 0 3.834-0.725 6.199-2.415 2.492-1.751 5.816-3.019 8.053-3.019 4.154 0 7.415 3.26 7.415 7.426s-3.26 7.547-7.415 7.547z"></path>
<path d="M173.65 11.713h-9.523v-10.808h-9.523v30.189h9.523v-11.291h9.523v11.291h9.523v-30.189h-9.523v10.808z"></path>
<path d="M125.013 16c0 9.358 7.094 16 17.192 16 2.62 0 5.944-0.543 8.564-1.389v-8.574c-2.173 1.087-4.538 1.63-7.158 1.63-5.177 0-8.82-3.14-8.82-7.668s3.643-7.668 8.82-7.668c2.493 0 4.857 0.604 7.158 1.691v-8.513c-2.493-0.906-5.752-1.509-8.564-1.509-10.098 0-17.192 6.641-17.192 16z"></path>
</symbol>
<symbol id="icon-user" viewBox="0 0 26 32">
<path fill="none" stroke="#fff" style="stroke: var(--color6, #fff)" stroke-linejoin="round" stroke-linecap="round" stroke-miterlimit="4" stroke-width="2.9206" d="M18.794 8.698c0 3.226-2.615 5.841-5.841 5.841s-5.841-2.615-5.841-5.841c0-3.226 2.615-5.841 5.841-5.841s5.841 2.615 5.841 5.841z"></path>
<path fill="none" stroke="#fff" style="stroke: var(--color6, #fff)" stroke-linejoin="round" stroke-linecap="round" stroke-miterlimit="4" stroke-width="2.9206" d="M12.952 18.921c-5.646 0-10.222 4.577-10.222 10.222h20.444c0-5.646-4.577-10.222-10.222-10.222z"></path>
</symbol>
<symbol id="icon-Group-14631" viewBox="0 0 168 32">
<path fill="#ebe100" style="fill: var(--color1, #ebe100); stroke: var(--color1, #ebe100)" stroke="#ebe100" stroke-linejoin="round" stroke-linecap="round" stroke-miterlimit="4" stroke-width="2.6667" d="M14.992 5.565c0.309-0.888 0.463-1.332 0.691-1.455 0.197-0.106 0.435-0.106 0.633 0 0.228 0.123 0.383 0.567 0.691 1.455l2.040 5.87c0.088 0.253 0.132 0.379 0.211 0.473 0.070 0.083 0.159 0.148 0.26 0.189 0.114 0.046 0.248 0.049 0.515 0.054l6.213 0.127c0.94 0.019 1.41 0.029 1.597 0.208 0.162 0.155 0.236 0.381 0.196 0.602-0.047 0.255-0.421 0.539-1.17 1.107l-4.952 3.754c-0.213 0.162-0.32 0.242-0.385 0.347-0.058 0.092-0.092 0.197-0.099 0.305-0.009 0.123 0.030 0.251 0.107 0.507l1.8 5.948c0.272 0.9 0.408 1.35 0.296 1.583-0.097 0.202-0.29 0.342-0.512 0.372-0.257 0.035-0.643-0.234-1.414-0.771l-5.101-3.55c-0.22-0.153-0.329-0.229-0.449-0.259-0.105-0.026-0.216-0.026-0.321 0-0.119 0.030-0.229 0.106-0.449 0.259l-5.101 3.55c-0.772 0.537-1.157 0.805-1.414 0.771-0.222-0.030-0.415-0.17-0.512-0.372-0.112-0.234 0.024-0.684 0.296-1.583l1.8-5.948c0.077-0.256 0.116-0.384 0.107-0.507-0.008-0.108-0.042-0.213-0.099-0.305-0.065-0.104-0.172-0.185-0.385-0.347l-4.952-3.754c-0.749-0.568-1.124-0.852-1.17-1.107-0.040-0.221 0.033-0.447 0.196-0.602 0.188-0.179 0.657-0.189 1.597-0.208l6.213-0.127c0.267-0.005 0.401-0.008 0.515-0.054 0.101-0.041 0.19-0.106 0.26-0.189 0.079-0.094 0.123-0.22 0.211-0.473l2.040-5.87z"></path>
<path fill="#ebe100" style="fill: var(--color1, #ebe100); stroke: var(--color1, #ebe100)" stroke="#ebe100" stroke-linejoin="round" stroke-linecap="round" stroke-miterlimit="4" stroke-width="2.6667" d="M48.992 5.565c0.309-0.888 0.463-1.332 0.691-1.455 0.197-0.106 0.435-0.106 0.633 0 0.228 0.123 0.382 0.567 0.691 1.455l2.040 5.87c0.088 0.253 0.132 0.379 0.211 0.473 0.070 0.083 0.159 0.148 0.26 0.189 0.114 0.046 0.248 0.049 0.515 0.054l6.213 0.127c0.94 0.019 1.41 0.029 1.597 0.208 0.162 0.155 0.236 0.381 0.196 0.602-0.047 0.255-0.421 0.539-1.17 1.107l-4.952 3.754c-0.213 0.162-0.32 0.242-0.385 0.347-0.058 0.092-0.092 0.197-0.099 0.305-0.009 0.123 0.030 0.251 0.107 0.507l1.8 5.948c0.272 0.9 0.408 1.35 0.296 1.583-0.097 0.202-0.29 0.342-0.512 0.372-0.257 0.035-0.643-0.234-1.414-0.771l-5.101-3.55c-0.22-0.153-0.329-0.229-0.449-0.259-0.105-0.026-0.216-0.026-0.321 0-0.119 0.030-0.229 0.106-0.449 0.259l-5.101 3.55c-0.772 0.537-1.157 0.805-1.414 0.771-0.222-0.030-0.415-0.17-0.512-0.372-0.112-0.234 0.024-0.684 0.296-1.583l1.8-5.948c0.077-0.256 0.116-0.384 0.107-0.507-0.008-0.108-0.042-0.213-0.099-0.305-0.065-0.104-0.172-0.185-0.385-0.347l-4.952-3.754c-0.749-0.568-1.124-0.852-1.17-1.107-0.040-0.221 0.033-0.447 0.196-0.602 0.187-0.179 0.657-0.189 1.597-0.208l6.213-0.127c0.268-0.005 0.401-0.008 0.515-0.054 0.101-0.041 0.19-0.106 0.26-0.189 0.079-0.094 0.123-0.22 0.211-0.473l2.040-5.87z"></path>
<path fill="#ebe100" style="fill: var(--color1, #ebe100); stroke: var(--color1, #ebe100)" stroke="#ebe100" stroke-linejoin="round" stroke-linecap="round" stroke-miterlimit="4" stroke-width="2.6667" d="M82.992 5.565c0.309-0.888 0.463-1.332 0.691-1.455 0.197-0.106 0.435-0.106 0.633 0 0.228 0.123 0.382 0.567 0.691 1.455l2.040 5.87c0.088 0.253 0.132 0.379 0.211 0.473 0.070 0.083 0.159 0.148 0.26 0.189 0.114 0.046 0.248 0.049 0.515 0.054l6.213 0.127c0.94 0.019 1.41 0.029 1.597 0.208 0.162 0.155 0.236 0.381 0.196 0.602-0.047 0.255-0.421 0.539-1.17 1.107l-4.952 3.754c-0.213 0.162-0.32 0.242-0.385 0.347-0.058 0.092-0.092 0.197-0.099 0.305-0.009 0.123 0.030 0.251 0.107 0.507l1.8 5.948c0.272 0.9 0.408 1.35 0.296 1.583-0.097 0.202-0.29 0.342-0.512 0.372-0.257 0.035-0.643-0.234-1.414-0.771l-5.101-3.55c-0.22-0.153-0.329-0.229-0.449-0.259-0.105-0.026-0.216-0.026-0.321 0-0.119 0.030-0.229 0.106-0.449 0.259l-5.101 3.55c-0.772 0.537-1.157 0.805-1.414 0.771-0.222-0.030-0.415-0.17-0.512-0.372-0.112-0.234 0.024-0.684 0.296-1.583l1.8-5.948c0.077-0.256 0.116-0.384 0.107-0.507-0.008-0.108-0.042-0.213-0.099-0.305-0.065-0.104-0.172-0.185-0.385-0.347l-4.952-3.754c-0.749-0.568-1.124-0.852-1.17-1.107-0.040-0.221 0.033-0.447 0.196-0.602 0.187-0.179 0.657-0.189 1.597-0.208l6.213-0.127c0.268-0.005 0.401-0.008 0.515-0.054 0.101-0.041 0.19-0.106 0.26-0.189 0.079-0.094 0.123-0.22 0.211-0.473l2.040-5.87z"></path>
<path fill="#ebe100" style="fill: var(--color1, #ebe100); stroke: var(--color1, #ebe100)" stroke="#ebe100" stroke-linejoin="round" stroke-linecap="round" stroke-miterlimit="4" stroke-width="2.6667" d="M116.992 5.565c0.309-0.888 0.463-1.332 0.691-1.455 0.197-0.106 0.435-0.106 0.633 0 0.228 0.123 0.382 0.567 0.691 1.455l2.040 5.87c0.088 0.253 0.132 0.379 0.211 0.473 0.070 0.083 0.159 0.148 0.26 0.189 0.114 0.046 0.248 0.049 0.515 0.054l6.213 0.127c0.94 0.019 1.41 0.029 1.597 0.208 0.162 0.155 0.236 0.381 0.196 0.602-0.047 0.255-0.421 0.539-1.17 1.107l-4.952 3.754c-0.213 0.162-0.32 0.242-0.385 0.347-0.058 0.092-0.092 0.197-0.099 0.305-0.009 0.123 0.030 0.251 0.107 0.507l1.8 5.948c0.272 0.9 0.408 1.35 0.296 1.583-0.097 0.202-0.29 0.342-0.512 0.372-0.257 0.035-0.643-0.234-1.414-0.771l-5.101-3.55c-0.22-0.153-0.329-0.229-0.449-0.259-0.105-0.026-0.216-0.026-0.321 0-0.119 0.030-0.229 0.106-0.449 0.259l-5.101 3.55c-0.772 0.537-1.157 0.805-1.414 0.771-0.222-0.030-0.415-0.17-0.512-0.372-0.112-0.234 0.024-0.684 0.296-1.583l1.8-5.948c0.077-0.256 0.116-0.384 0.107-0.507-0.008-0.108-0.042-0.213-0.099-0.305-0.065-0.104-0.172-0.185-0.385-0.347l-4.952-3.754c-0.749-0.568-1.124-0.852-1.17-1.107-0.040-0.221 0.033-0.447 0.196-0.602 0.187-0.179 0.657-0.189 1.597-0.208l6.213-0.127c0.268-0.005 0.401-0.008 0.515-0.054 0.101-0.041 0.19-0.106 0.26-0.189 0.079-0.094 0.123-0.22 0.211-0.473l2.040-5.87z"></path>
<path fill="#ebe100" style="fill: var(--color1, #ebe100); stroke: var(--color1, #ebe100)" stroke="#ebe100" stroke-linejoin="round" stroke-linecap="round" stroke-miterlimit="4" stroke-width="2.6667" d="M150.992 5.565c0.309-0.888 0.463-1.332 0.691-1.455 0.197-0.106 0.435-0.106 0.633 0 0.228 0.123 0.382 0.567 0.691 1.455l2.040 5.87c0.088 0.253 0.132 0.379 0.211 0.473 0.070 0.083 0.159 0.148 0.26 0.189 0.114 0.046 0.248 0.049 0.515 0.054l6.213 0.127c0.94 0.019 1.41 0.029 1.597 0.208 0.162 0.155 0.236 0.381 0.196 0.602-0.047 0.255-0.421 0.539-1.17 1.107l-4.952 3.754c-0.213 0.162-0.32 0.242-0.385 0.347-0.058 0.092-0.092 0.197-0.099 0.305-0.009 0.123 0.030 0.251 0.107 0.507l1.8 5.948c0.272 0.9 0.408 1.35 0.296 1.583-0.097 0.202-0.29 0.342-0.512 0.372-0.257 0.035-0.643-0.234-1.414-0.771l-5.101-3.55c-0.22-0.153-0.329-0.229-0.449-0.259-0.105-0.026-0.216-0.026-0.321 0-0.119 0.030-0.229 0.106-0.449 0.259l-5.101 3.55c-0.772 0.537-1.157 0.805-1.414 0.771-0.222-0.030-0.415-0.17-0.512-0.372-0.112-0.234 0.024-0.684 0.296-1.583l1.8-5.948c0.077-0.256 0.116-0.384 0.107-0.507-0.008-0.108-0.042-0.213-0.099-0.305-0.065-0.104-0.172-0.185-0.385-0.347l-4.952-3.754c-0.749-0.568-1.124-0.852-1.17-1.107-0.040-0.221 0.033-0.447 0.196-0.602 0.187-0.179 0.657-0.189 1.597-0.208l6.213-0.127c0.268-0.005 0.401-0.008 0.515-0.054 0.101-0.041 0.19-0.106 0.26-0.189 0.079-0.094 0.123-0.22 0.211-0.473l2.040-5.87z"></path>
</symbol>
<symbol id="icon-footer4" viewBox="0 0 41 32">
<path d="M40.873 7.385c0-3.616-2.66-6.525-5.947-6.525-4.452-0.208-8.992-0.288-13.632-0.288h-1.446c-4.629 0-9.177 0.080-13.629 0.289-3.279 0-5.938 2.925-5.938 6.541-0.201 2.86-0.286 5.721-0.281 8.581-0.008 2.861 0.083 5.724 0.273 8.59 0 3.616 2.66 6.549 5.938 6.549 4.677 0.217 9.474 0.313 14.352 0.305 4.886 0.016 9.67-0.086 14.352-0.305 3.287 0 5.947-2.933 5.947-6.549 0.193-2.869 0.281-5.729 0.273-8.598 0.018-2.861-0.069-5.724-0.262-8.59zM16.634 23.866v-15.79l11.652 7.891-11.652 7.899z"></path>
</symbol>
<symbol id="icon-footer3" viewBox="0 0 32 32">
<path d="M26.667 0h-21.333c-3.022 0-5.333 2.311-5.333 5.333v21.333c0 3.022 2.311 5.333 5.333 5.333h21.333c3.022 0 5.333-2.311 5.333-5.333v-21.333c0-3.022-2.311-5.333-5.333-5.333zM16 10.667c3.022 0 5.333 2.311 5.333 5.333s-2.311 5.333-5.333 5.333c-3.022 0-5.333-2.311-5.333-5.333s2.311-5.333 5.333-5.333zM22.756 7.111c0-1.244 1.067-2.133 2.133-2.133s2.133 1.067 2.133 2.133c0 1.067-0.889 2.133-2.133 2.133s-2.133-0.889-2.133-2.133zM26.667 28.444h-21.333c-1.067 0-1.778-0.711-1.778-1.778v-10.667h3.556c0 4.978 3.911 8.889 8.889 8.889s8.889-3.911 8.889-8.889h3.556v10.667c0 1.067-0.711 1.778-1.778 1.778z"></path>
</symbol>
<symbol id="icon-footer2" viewBox="0 0 36 32">
<path d="M31.78 6.024c1.616-0.992 2.686-2.346 3.21-4.068-1.476 0.798-3.060 1.378-4.702 1.722-1.406-1.512-3.186-2.28-5.32-2.28-2.086 0-3.848 0.732-5.286 2.156-0.694 0.676-1.244 1.487-1.614 2.383s-0.553 1.858-0.538 2.827c0 0.618 0.078 1.17 0.234 1.638-6.152-0.21-11.244-2.762-15.256-7.674-0.68 1.202-1.020 2.426-1.020 3.692 0 2.602 1.098 4.664 3.29 6.178-1.25-0.106-2.352-0.422-3.29-0.94 0 1.858 0.546 3.41 1.64 4.776 1.063 1.331 2.56 2.245 4.23 2.582-0.624 0.16-1.282 0.236-1.958 0.236-0.624 0-1.066-0.052-1.328-0.166 0.46 1.514 1.328 2.742 2.582 3.682 1.24 0.941 2.748 1.462 4.304 1.486-2.664 2.090-5.71 3.124-9.156 3.124-0.844 0-1.442-0.012-1.804-0.076 3.394 2.204 7.172 3.298 11.352 3.298 4.278 0 8.058-1.084 11.348-3.252 3.29-2.156 5.718-4.816 7.278-7.948 1.543-3.031 2.346-6.383 2.344-9.784v-0.936c1.438-1.060 2.683-2.36 3.68-3.842-1.347 0.584-2.766 0.983-4.22 1.186z"></path>
</symbol>
<symbol id="icon-footer1" viewBox="0 0 18 32">
<path d="M12 12h6v6h-6v14h-6v-14h-6v-6h6v-2.51c0-2.378 0.748-5.382 2.236-7.024 1.488-1.646 3.346-2.466 5.572-2.466h4.192v6h-4.2c-0.996 0-1.8 0.804-1.8 1.798v4.202z"></path>
</symbol>
</defs>
</svg>
